<mxfile host="app.diagrams.net" modified="2023-11-27T18:59:16.314Z" agent="Mozilla/5.0 (Windows NT 10.0; Win64; x64) AppleWebKit/537.36 (KHTML, like Gecko) Chrome/119.0.0.0 Safari/537.36" etag="O_UzOJn4VWraAqgY7i0N" version="22.1.4" type="github">
  <diagram name="Сторінка-1" id="DYfT3-H38FNfJMRjdE1F">
    <mxGraphModel dx="1050" dy="565" grid="0" gridSize="10" guides="1" tooltips="1" connect="1" arrows="1" fold="1" page="1" pageScale="1" pageWidth="827" pageHeight="1169" math="0" shadow="0">
      <root>
        <mxCell id="0" />
        <mxCell id="1" parent="0" />
        <mxCell id="lKjCsTjpu_VQotGphrrI-5" style="edgeStyle=orthogonalEdgeStyle;rounded=0;orthogonalLoop=1;jettySize=auto;html=1;exitX=0.5;exitY=1;exitDx=0;exitDy=0;entryX=0.5;entryY=0;entryDx=0;entryDy=0;" edge="1" parent="1" source="lKjCsTjpu_VQotGphrrI-1" target="lKjCsTjpu_VQotGphrrI-2">
          <mxGeometry relative="1" as="geometry" />
        </mxCell>
        <mxCell id="lKjCsTjpu_VQotGphrrI-1" value="&lt;b&gt;&lt;font style=&quot;font-size: 14px;&quot;&gt;Start&lt;/font&gt;&lt;/b&gt;" style="ellipse;whiteSpace=wrap;html=1;fillColor=#fff2cc;strokeColor=#d6b656;" vertex="1" parent="1">
          <mxGeometry x="310" y="40" width="130" height="60" as="geometry" />
        </mxCell>
        <mxCell id="lKjCsTjpu_VQotGphrrI-6" style="edgeStyle=orthogonalEdgeStyle;rounded=0;orthogonalLoop=1;jettySize=auto;html=1;exitX=0.5;exitY=1;exitDx=0;exitDy=0;entryX=0.5;entryY=0;entryDx=0;entryDy=0;" edge="1" parent="1" source="lKjCsTjpu_VQotGphrrI-2" target="lKjCsTjpu_VQotGphrrI-3">
          <mxGeometry relative="1" as="geometry" />
        </mxCell>
        <mxCell id="lKjCsTjpu_VQotGphrrI-2" value="&lt;b&gt;Read n, epsylon, an&lt;/b&gt;" style="rounded=0;whiteSpace=wrap;html=1;fillColor=#d5e8d4;strokeColor=#82b366;" vertex="1" parent="1">
          <mxGeometry x="310" y="120" width="130" height="50" as="geometry" />
        </mxCell>
        <mxCell id="lKjCsTjpu_VQotGphrrI-8" style="edgeStyle=orthogonalEdgeStyle;rounded=0;orthogonalLoop=1;jettySize=auto;html=1;exitX=1;exitY=0.5;exitDx=0;exitDy=0;entryX=1;entryY=0.5;entryDx=0;entryDy=0;" edge="1" parent="1" source="lKjCsTjpu_VQotGphrrI-3" target="lKjCsTjpu_VQotGphrrI-4">
          <mxGeometry relative="1" as="geometry" />
        </mxCell>
        <mxCell id="lKjCsTjpu_VQotGphrrI-10" style="edgeStyle=orthogonalEdgeStyle;rounded=0;orthogonalLoop=1;jettySize=auto;html=1;exitX=0;exitY=0.5;exitDx=0;exitDy=0;entryX=0;entryY=0.5;entryDx=0;entryDy=0;" edge="1" parent="1" source="lKjCsTjpu_VQotGphrrI-3" target="lKjCsTjpu_VQotGphrrI-9">
          <mxGeometry relative="1" as="geometry">
            <mxPoint x="270" y="390" as="targetPoint" />
            <Array as="points">
              <mxPoint x="271" y="225" />
              <mxPoint x="271" y="385" />
            </Array>
          </mxGeometry>
        </mxCell>
        <mxCell id="lKjCsTjpu_VQotGphrrI-3" value="&lt;b&gt;an&amp;gt;=epsylon?&lt;/b&gt;" style="rhombus;whiteSpace=wrap;html=1;fillColor=#ffe6cc;strokeColor=#d79b00;" vertex="1" parent="1">
          <mxGeometry x="325" y="190" width="100" height="70" as="geometry" />
        </mxCell>
        <mxCell id="lKjCsTjpu_VQotGphrrI-4" value="&lt;b&gt;an=an/(3*n+2);&lt;br&gt;n++;&lt;br&gt;suma=suma+an;&lt;/b&gt;" style="rounded=0;whiteSpace=wrap;html=1;fillColor=#d5e8d4;strokeColor=#82b366;" vertex="1" parent="1">
          <mxGeometry x="310" y="280" width="130" height="50" as="geometry" />
        </mxCell>
        <mxCell id="lKjCsTjpu_VQotGphrrI-12" style="edgeStyle=orthogonalEdgeStyle;rounded=0;orthogonalLoop=1;jettySize=auto;html=1;exitX=0.5;exitY=1;exitDx=0;exitDy=0;entryX=0.5;entryY=0;entryDx=0;entryDy=0;" edge="1" parent="1" source="lKjCsTjpu_VQotGphrrI-9" target="lKjCsTjpu_VQotGphrrI-11">
          <mxGeometry relative="1" as="geometry" />
        </mxCell>
        <mxCell id="lKjCsTjpu_VQotGphrrI-9" value="&lt;b&gt;Output suma&lt;/b&gt;" style="shape=parallelogram;perimeter=parallelogramPerimeter;whiteSpace=wrap;html=1;fixedSize=1;fillColor=#dae8fc;strokeColor=#6c8ebf;" vertex="1" parent="1">
          <mxGeometry x="312.5" y="360" width="125" height="50" as="geometry" />
        </mxCell>
        <mxCell id="lKjCsTjpu_VQotGphrrI-11" value="&lt;b&gt;&lt;font style=&quot;font-size: 14px;&quot;&gt;Finish&lt;/font&gt;&lt;/b&gt;" style="ellipse;whiteSpace=wrap;html=1;fillColor=#fff2cc;strokeColor=#d6b656;" vertex="1" parent="1">
          <mxGeometry x="312.5" y="430" width="130" height="60" as="geometry" />
        </mxCell>
        <mxCell id="lKjCsTjpu_VQotGphrrI-13" value="YES" style="text;html=1;strokeColor=none;fillColor=none;align=center;verticalAlign=middle;whiteSpace=wrap;rounded=0;" vertex="1" parent="1">
          <mxGeometry x="450" y="250" width="60" height="30" as="geometry" />
        </mxCell>
        <mxCell id="lKjCsTjpu_VQotGphrrI-14" value="NO" style="text;html=1;strokeColor=none;fillColor=none;align=center;verticalAlign=middle;whiteSpace=wrap;rounded=0;" vertex="1" parent="1">
          <mxGeometry x="230" y="290" width="60" height="30" as="geometry" />
        </mxCell>
      </root>
    </mxGraphModel>
  </diagram>
</mxfile>
